# xmcd
#
# Track frame offsets:
#	150
#	13416
#	28392
#	42147
#	57137
#	71738
#	88910
#	107030
#	123143
#	137076
#	153542
#	170129
#	186683
#	198687
#	215269
#	229794
#	247096
#	265651
#	283939
#	300177
#
# Disc length: 4216 seconds
#
# Revision: 2
# Processed by: cddbd v1.5.2PL0 Copyright (c) Steve Scherf et al.
# Submitted via: audiograbber 1.83.01
#
DISCID=33107614
DTITLE=Various Artist - Promo Only Country Radio 2008-11
DYEAR=2008
DGENRE=Country
TTITLE0=Joey and Rory - Cheater Cheater
TTITLE1=Dierks Bentley - Feel That Fire
TTITLE2=Kristy Lee Cook - 15 Minutes Of Shame
TTITLE3=Gary Allan - She's So California
TTITLE4=Jimmy Wayne - I Will
TTITLE5=Mark Chesnutt - Come On In The Whiskey's Fine
TTITLE6=Alan Jackson - Country Boy
TTITLE7=James Otto - These Are The Good Ole Days
TTITLE8=Jake Owen - Don't Think I Can't Love You
TTITLE9=Brooks and Dunn - Cowgirls Don't Cry
TTITLE10=Jessica Simpson - Remember That
TTITLE11=Jack Ingram - That's A Man
TTITLE12=The Lost Trailers - How 'Bout You Don't
TTITLE13=Eli Young Band - Always The Love Songs
TTITLE14=Randy Travis - Dig Two Graves
TTITLE15=Jamie O'Neal - Like A Woman
TTITLE16=Rio Grande - God's Got A Bigger Plan
TTITLE17=Jeremy McComb - Cold
TTITLE18=Niel Carswell - Altar Call
TTITLE19=Joe Zelek - Brought To You By Drinkin'
EXTD=
EXTT0=
EXTT1=
EXTT2=
EXTT3=
EXTT4=
EXTT5=
EXTT6=
EXTT7=
EXTT8=
EXTT9=
EXTT10=
EXTT11=
EXTT12=
EXTT13=
EXTT14=
EXTT15=
EXTT16=
EXTT17=
EXTT18=
EXTT19=
PLAYORDER=
